<?xml version="1.0" standalone="no"?>
<!DOCTYPE svg PUBLIC "-//W3C//DTD SVG 20010904//EN"
 "http://www.w3.org/TR/2001/REC-SVG-20010904/DTD/svg10.dtd">
<svg version="1.0" xmlns="http://www.w3.org/2000/svg"
 width="1024.000000pt" height="1024.000000pt" viewBox="0 0 1024.000000 1024.000000"
 preserveAspectRatio="xMidYMid meet">

<g transform="translate(0.000000,1024.000000) scale(0.100000,-0.100000)"
fill="#000000" stroke="none">
<path d="M815 1891 c-11 -5 -31 -21 -45 -36 l-25 -27 -3 -313 -3 -314 -284 -3
-285 -3 -32 -33 -33 -32 0 -390 0 -390 32 -32 c30 -30 39 -33 108 -36 l75 -4
0 -77 c0 -129 19 -131 146 -14 l95 88 314 5 315 5 32 33 33 32 3 315 3 315 87
0 87 0 95 -90 c129 -121 150 -119 150 11 l0 77 75 4 c69 3 78 6 108 36 l32 32
0 390 0 390 -33 32 -32 33 -498 2 c-273 1 -506 -2 -517 -6z m993 -83 c17 -17
17 -719 0 -736 -7 -7 -44 -12 -98 -12 -54 0 -91 -5 -98 -12 -7 -7 -12 -34 -12
-62 l0 -49 -64 61 -64 62 -314 0 c-231 0 -317 3 -326 12 -17 17 -17 719 0 736
17 17 959 17 976 0z m-1064 -726 c3 -24 17 -49 36 -67 l31 -30 185 -3 184 -3
0 -298 c0 -218 -3 -300 -12 -309 -9 -9 -95 -12 -326 -12 l-314 0 -64 -62 -64
-61 0 49 c0 28 -5 55 -12 62 -7 7 -44 12 -98 12 -54 0 -91 5 -98 12 -17 17
-17 719 0 736 9 9 85 12 279 12 l266 0 7 -38z"/>
<path d="M1292 1688 c-7 -7 -12 -29 -12 -50 l0 -37 -111 -3 c-94 -3 -114 -6
-123 -20 -8 -13 -8 -23 0 -35 9 -14 28 -19 83 -21 44 -2 71 -7 71 -14 0 -6 14
-42 32 -80 30 -66 31 -69 13 -88 -10 -11 -48 -34 -84 -51 -36 -17 -73 -34 -81
-38 -21 -11 -24 -45 -5 -61 28 -23 141 21 210 81 l35 31 35 -31 c69 -60 182
-104 210 -81 19 16 16 50 -5 61 -8 4 -40 19 -70 32 -30 13 -69 36 -87 51 l-31
26 23 43 c12 23 28 59 35 79 l11 37 71 3 c55 2 73 7 82 21 8 12 8 22 0 35 -9
14 -29 17 -123 20 l-111 3 0 37 c0 40 -14 62 -40 62 -9 0 -21 -5 -28 -12z m68
-172 c0 -15 -32 -76 -40 -76 -8 0 -40 61 -40 76 0 2 18 4 40 4 22 0 40 -2 40
-4z"/>
<path d="M637 963 c-65 -105 -238 -436 -235 -450 4 -21 32 -38 51 -30 8 3 36
44 62 91 l47 86 118 0 118 0 45 -82 c24 -45 51 -87 60 -92 20 -13 50 2 55 27
2 9 -45 105 -104 214 -139 256 -150 273 -174 273 -12 0 -29 -15 -43 -37z m78
-150 c17 -31 32 -60 33 -65 2 -4 -29 -8 -68 -8 -39 0 -70 4 -68 8 10 26 64
122 68 122 3 0 19 -26 35 -57z"/>
</g>
</svg>
