<?xml version="1.0" standalone="no"?>
<!DOCTYPE svg PUBLIC "-//W3C//DTD SVG 20010904//EN"
 "http://www.w3.org/TR/2001/REC-SVG-20010904/DTD/svg10.dtd">
<svg viewBox="-250 -250 500 500" xmlns="http://www.w3.org/2000/svg">
  <path d="M182 184 c-11 -3 -23 -15 -26 -27 -1 -7 -2 -266 -3 -575 l-2 -563 193 0 192 0 -1 575 c0 582 0 575 -21 594 -14 13 -70 14 -326 14 -249 0 -312 -2 -328 -13z m311 -79 c4 -5 7 -258 7 -563 l0 -554 -167 0 -167 0 0 559 c0 461 3 561 14 563 7 2 85 3 173 4 l160 2 0 -11z"/>
  <path d="M233 344 c-7 -13 -6 -41 1 -64 12 -36 44 -55 82 -48 34 6 52 28 52 65 0 31 -4 36 -30 46 -33 13 -84 10 -105 1z m39 -66 c8 -8 12 -23 10 -38 -4 -25 -19 -29 -68 -20 -41 8 -49 12 -56 31 -8 23 -8 25 7 25 9 0 30 -7 47 -16 17 -9 36 -16 42 -16 7 0 15 6 18 14z"/>
  <path d="M327 288 c-8 -11 -7 -34 1 -60 11 -32 46 -59 78 -59 34 0 52 28 45 69 -6 38 -39 61 -81 51 -28 -7 -35 -19 -43 -40z m50 -53 c8 -12 7 -20 -5 -36 -10 -14 -23 -20 -36 -17 -20 5 -25 25 -10 45 12 16 72 -3 51 -27z"/>
  <path d="M77 289 c-21 -21 -2 -65 27 -53 17 7 18 36 1 46 -16 10 -22 9 -28 -2z"/>
  <path d="M429 290 c-7 -9 -5 -32 6 -56 10 -21 24 -32 42 -32 26 0 29 4 29 34 0 30 -4 35 -30 45 -33 13 -38 12 -47 -5z m39 -52 c5 -8 4 -17 -3 -23 -11 -10 -20 -5 -44 25 -22 27 -25 38 -7 38 6 0 21 -7 32 -15 13 -9 21 -18 22 -25z"/>
  <path d="M36 198 c-23 -21 -3 -63 29 -52 15 5 17 16 14 74 -3 65 -4 68 -24 68 -8 0 -20 -7 -19 -17z m34 -48 c8 -10 9 -17 3 -23 -5 -6 -14 -10 -19 -7 -6 4 -8 17 -5 31 6 25 10 25 21 -1z"/>
  <path d="M429 188 c-7 -9 -5 -32 6 -56 10 -21 24 -32 42 -32 26 0 29 4 29 34 0 30 -4 35 -30 45 -33 13 -38 12 -47 -5z m39 -52 c5 -8 4 -17 -3 -23 -11 -10 -20 -5 -44 25 -22 27 -25 38 -7 38 6 0 21 -7 32 -15 13 -9 21 -18 22 -25z"/>
  <path d="M37 98 c-10 -9 -7 -32 10 -54 15 -20 26 -24 51 -20 37 7 44 31 21 68 -16 27 -67 31 -82 6z m43 -52 c5 -8 4 -17 -3 -23 -11 -10 -20 -5 -44 25 -22 27 -25 38 -7 38 6 0 21 -7 32 -15 13 -9 21 -18 22 -25z"/>
</svg>

