<?xml version="1.0" standalone="no"?>
<!DOCTYPE svg PUBLIC "-//W3C//DTD SVG 20010904//EN"
 "http://www.w3.org/TR/2001/REC-SVG-20010904/DTD/svg10.dtd">
<svg version="1.0" xmlns="http://www.w3.org/2000/svg"
 width="1024.000000pt" height="1024.000000pt" viewBox="0 0 1024.000000 1024.000000"
 preserveAspectRatio="xMidYMid meet">

<g transform="translate(0.000000,1024.000000) scale(0.100000,-0.100000)"
fill="#000000" stroke="none">
<path d="M5109 7753 c-11 -12 -15 -72 -17 -262 -3 -239 -3 -248 18 -274 26
-32 62 -35 90 -7 19 19 20 33 20 273 0 233 -1 255 -18 270 -24 22 -76 22 -93
0z"/>
<path d="M4200 7517 c-20 -10 -25 -20 -25 -52 0 -38 4 -43 175 -192 212 -185
242 -207 269 -198 32 10 51 34 51 65 0 22 -12 38 -52 71 -29 24 -116 98 -193
164 -135 117 -184 155 -195 155 -3 0 -16 -6 -30 -13z"/>
<path d="M5984 7467 c-32 -29 -113 -97 -179 -151 -66 -54 -130 -109 -142 -123
-44 -46 -18 -103 46 -103 24 0 44 11 79 43 26 24 106 92 177 151 72 59 140
115 153 126 27 23 29 63 2 90 -34 34 -70 26 -136 -33z"/>
<path d="M6230 7110 c-31 -114 -91 -178 -200 -211 -65 -19 -85 -39 -40 -39 40
0 134 -44 169 -79 27 -27 44 -58 61 -111 l24 -75 17 57 c33 112 80 159 205
202 38 14 59 25 48 25 -34 1 -106 30 -147 58 -44 31 -73 74 -103 157 l-22 61
-12 -45z"/>
<path d="M4046 7016 c-34 -124 -91 -181 -208 -207 -32 -6 -58 -15 -58 -19 0
-4 21 -10 46 -14 60 -8 137 -50 170 -94 15 -19 37 -63 49 -99 13 -35 25 -66
27 -69 3 -2 12 22 21 54 9 31 29 76 46 99 38 52 120 101 184 109 26 4 47 9 47
13 0 4 -28 12 -62 18 -107 21 -177 87 -222 212 l-23 63 -17 -66z"/>
<path d="M5005 6886 c-301 -60 -512 -255 -597 -551 -19 -68 -23 -103 -23 -230
1 -136 3 -158 28 -230 14 -44 74 -165 132 -270 59 -104 138 -251 177 -325 l71
-135 -7 -130 c-7 -126 -6 -133 19 -190 64 -147 108 -199 213 -248 135 -64 296
-34 396 73 25 26 58 77 74 113 16 35 35 67 41 71 7 5 11 59 11 164 l0 157 69
140 c37 77 104 205 147 285 154 283 184 373 184 553 0 127 -29 240 -93 362
-62 119 -201 255 -322 317 -49 25 -117 54 -150 63 -83 22 -282 28 -370 11z
m314 -121 c175 -42 344 -173 430 -335 80 -149 98 -344 46 -497 -15 -45 -77
-174 -137 -285 -60 -112 -136 -258 -170 -325 -34 -70 -66 -123 -74 -123 -11 0
-14 24 -14 123 0 184 27 281 112 405 42 61 103 197 118 261 55 235 -106 482
-355 546 -311 80 -611 -163 -593 -479 6 -101 33 -174 103 -275 114 -167 135
-234 135 -438 0 -109 -3 -143 -13 -143 -7 0 -31 37 -54 83 -22 45 -102 195
-177 332 -144 264 -162 306 -175 429 -24 210 44 404 193 551 91 91 165 133
286 164 93 25 249 27 339 6z m-5 -370 c69 -32 131 -91 171 -159 22 -37 29 -65
33 -122 6 -103 -9 -151 -94 -296 -119 -202 -127 -229 -132 -440 l-4 -178 -129
0 -129 0 0 158 c0 239 -20 305 -150 502 -66 102 -80 139 -80 222 0 141 97 279
232 329 79 29 203 22 282 -16z m114 -1337 c3 -17 -15 -18 -262 -18 -260 0
-266 0 -266 20 0 20 5 20 262 18 241 -3 263 -4 266 -20z m0 -150 c-4 -10 -65
-13 -263 -13 -198 0 -259 3 -262 13 -4 9 53 12 262 12 209 0 266 -3 263 -12z
m-68 -133 c0 -18 -39 -59 -75 -81 -86 -50 -198 -39 -278 27 -68 56 -60 59 158
59 107 0 195 -2 195 -5z"/>
<path d="M3445 6506 c-11 -8 -18 -26 -18 -46 0 -46 32 -70 92 -70 25 0 125 -9
221 -20 233 -28 250 -28 272 0 21 26 23 59 4 85 -11 16 -47 22 -242 41 -270
27 -304 28 -329 10z"/>
<path d="M6530 6493 c-172 -13 -198 -17 -217 -36 -29 -26 -30 -68 -3 -92 19
-18 29 -18 163 -6 78 7 195 17 261 22 130 9 156 21 156 69 0 15 -8 34 -18 43
-22 20 -66 20 -342 0z"/>
<path d="M6107 6263 c-4 -3 -7 -26 -7 -49 0 -53 4 -57 152 -150 62 -40 208
-131 323 -204 377 -238 478 -302 605 -385 69 -44 146 -94 172 -110 26 -17 47
-33 48 -37 0 -11 -66 -58 -425 -303 -538 -367 -586 -400 -795 -543 -107 -73
-367 -248 -577 -389 -350 -234 -385 -255 -424 -255 -48 1 -48 1 -651 407 -220
149 -667 448 -992 665 -325 217 -591 399 -590 405 1 10 406 267 1033 656 262
163 256 157 259 212 3 45 2 47 -25 47 -37 0 -181 -87 -1227 -741 -142 -88
-184 -127 -222 -205 l-29 -59 0 -1216 0 -1215 38 -77 c43 -86 89 -131 183
-174 l59 -27 2163 2 c2358 4 2196 -1 2285 61 48 32 84 81 119 156 l23 50 0
1215 0 1215 -31 65 c-17 36 -46 83 -65 105 -32 37 -341 245 -574 388 -60 37
-139 86 -175 109 -97 62 -422 267 -526 332 -88 54 -113 64 -127 49z m1383
-2189 l0 -1145 -92 65 c-51 36 -208 144 -348 240 -140 96 -388 267 -550 380
-162 113 -384 266 -493 342 -109 75 -197 137 -195 139 2 1 122 82 268 180 630
424 1307 886 1365 931 16 12 33 20 37 18 4 -3 8 -520 8 -1150z m-4298 923
c300 -201 767 -513 1185 -791 84 -56 152 -103 153 -106 0 -3 -80 -60 -178
-128 -97 -68 -296 -207 -442 -308 -146 -102 -364 -252 -485 -335 -121 -83
-292 -202 -380 -264 -88 -63 -168 -119 -177 -125 -17 -10 -18 46 -18 1135 0
630 2 1145 5 1145 2 0 154 -101 337 -223z m1547 -1035 c190 -135 342 -232 383
-242 89 -24 141 0 436 203 l143 98 67 -45 c37 -26 104 -72 149 -104 316 -219
834 -577 1078 -746 414 -285 485 -336 485 -345 0 -17 -46 -75 -83 -105 l-39
-31 -2156 -3 c-1187 -1 -2172 0 -2190 3 -40 7 -114 73 -133 116 -15 37 -36 18
216 194 99 69 239 167 310 217 72 50 229 159 350 242 197 136 644 448 815 568
36 26 67 47 69 47 2 1 47 -30 100 -67z"/>
<path d="M6129 5715 c-14 -55 -60 -99 -121 -116 l-43 -11 44 -13 c54 -17 88
-48 114 -105 12 -27 22 -39 25 -30 16 55 46 98 81 118 21 12 46 22 55 22 28 0
17 17 -15 24 -42 8 -95 64 -108 114 -7 23 -14 42 -16 42 -3 0 -10 -20 -16 -45z"/>
<path d="M4186 5686 c-10 -50 -56 -100 -108 -116 l-43 -13 43 -12 c64 -20 90
-41 103 -86 l13 -41 22 44 c27 53 52 76 101 93 l38 13 -28 11 c-16 6 -31 11
-35 11 -18 1 -57 45 -77 87 l-22 45 -7 -36z"/>
<path d="M3928 5432 c-32 -104 -74 -149 -163 -173 -22 -6 -47 -13 -55 -16 -8
-3 16 -15 53 -27 91 -30 139 -77 168 -165 l22 -66 22 68 c13 38 35 81 51 98
31 32 117 79 146 79 10 0 18 5 18 10 0 6 -10 10 -23 10 -13 0 -48 12 -78 28
-62 31 -115 100 -125 163 -4 22 -9 41 -13 43 -4 3 -14 -21 -23 -52z"/>
<path d="M5911 5412 c-17 -67 -60 -115 -126 -143 l-54 -22 56 -23 c71 -29 97
-54 124 -120 l23 -54 28 60 c31 64 80 103 147 116 37 8 31 17 -23 34 -55 18
-120 86 -140 148 -10 29 -19 52 -20 52 -1 0 -8 -22 -15 -48z"/>
<path d="M6407 5450 c-2 -8 -11 -35 -18 -60 -19 -62 -74 -114 -138 -131 -57
-14 -65 -26 -23 -35 57 -13 68 -17 101 -42 20 -15 44 -49 61 -86 l28 -61 12
43 c16 60 85 128 145 144 25 7 45 15 45 18 0 3 -24 14 -52 24 -67 24 -111 70
-136 143 -11 33 -22 51 -25 43z"/>
<path d="M4386 5343 c-3 -4 -6 -16 -6 -29 0 -33 -46 -82 -91 -95 -21 -7 -39
-15 -39 -19 0 -3 22 -15 49 -27 41 -17 52 -28 74 -74 l25 -54 7 30 c11 45 51
92 90 106 19 7 35 15 35 19 -1 3 -20 14 -43 25 -32 15 -48 32 -68 72 -15 29
-29 49 -33 46z"/>
</g>
</svg>
