<?xml version="1.0" standalone="no"?>
<!DOCTYPE svg PUBLIC "-//W3C//DTD SVG 20010904//EN"
 "http://www.w3.org/TR/2001/REC-SVG-20010904/DTD/svg10.dtd">
<svg version="1.0" xmlns="http://www.w3.org/2000/svg"
 width="651.000000pt" height="431.000000pt" viewBox="0 0 651.000000 431.000000"
 preserveAspectRatio="xMidYMid meet">

<g transform="translate(0.000000,431.000000) scale(0.100000,-0.100000)"
fill="#000000" stroke="none">
<path d="M2973 3459 c-38 -11 -118 -90 -175 -173 -80 -115 -182 -368 -237
-584 -45 -176 -63 -395 -40 -487 20 -78 78 -107 144 -72 39 20 113 98 159 167
19 30 45 66 57 80 17 21 19 22 15 5 -56 -211 -70 -331 -41 -372 20 -28 47 -21
105 27 40 33 48 36 64 25 22 -17 63 -6 110 30 l35 26 3 -42 c2 -29 9 -46 24
-55 18 -13 25 -11 61 15 22 16 60 56 84 89 47 65 59 74 59 42 0 -15 7 -20 26
-20 20 0 49 23 118 93 143 145 226 300 249 465 11 73 16 87 31 87 11 0 28 -12
39 -28 19 -25 20 -32 10 -81 -20 -92 -74 -207 -155 -326 -74 -109 -94 -160
-65 -160 14 0 74 70 175 205 79 106 128 162 137 153 4 -3 -13 -46 -37 -95
l-43 -88 3 -150 c2 -82 6 -152 8 -154 3 -3 12 3 22 12 14 15 17 39 18 160 1
138 1 144 31 202 40 79 57 137 49 169 -10 39 -37 33 -97 -21 -32 -30 -50 -40
-45 -28 18 43 46 151 46 177 0 43 -29 106 -53 114 -12 4 -34 7 -49 6 -22 -2
-27 3 -33 28 -12 55 -89 89 -135 60 -19 -12 -28 9 -29 65 -2 100 -50 175 -113
175 -18 0 -39 -4 -47 -9 -10 -7 -23 -1 -43 21 -23 25 -34 29 -63 26 -33 -4
-35 -2 -41 32 -12 63 -43 117 -76 131 -27 11 -36 10 -72 -9 -22 -12 -44 -22
-47 -22 -4 0 -12 13 -19 29 -23 57 -68 78 -127 60z m56 -69 c10 -5 24 -23 31
-40 11 -27 10 -33 -16 -66 -137 -172 -212 -310 -332 -609 -90 -224 -118 -312
-130 -400 -8 -58 -9 -59 -20 -32 -28 68 -3 319 53 516 40 142 72 226 143 370
101 205 199 300 271 261z m190 -60 c20 -10 51 -78 51 -112 0 -11 -21 -44 -47
-72 -27 -29 -57 -64 -68 -80 l-20 -28 0 132 c1 126 2 133 24 151 26 22 35 23
60 9z m-131 -227 l-5 -148 -55 -140 c-31 -77 -63 -166 -72 -198 -9 -32 -23
-60 -31 -63 -7 -3 -21 -24 -30 -47 -33 -84 -212 -287 -252 -287 -22 0 -15 81
13 172 65 207 207 539 286 670 43 71 131 187 142 188 5 0 6 -66 4 -147z m289
51 c2 -6 -8 -19 -22 -28 -25 -16 -25 -16 -25 14 0 27 3 31 22 28 12 -2 23 -8
25 -14z m-146 -186 c-122 -199 -241 -582 -241 -775 0 -35 -6 -48 -37 -78 -56
-54 -67 -48 -61 33 7 89 84 394 115 457 14 27 45 108 69 181 46 139 90 224
158 301 l41 47 3 -42 c3 -35 -5 -54 -47 -124z m315 128 c8 -14 20 -57 25 -97
l10 -72 -55 -56 -55 -55 5 90 c3 49 1 117 -4 152 l-9 62 33 0 c24 0 38 -7 50
-24z m-125 -42 c12 -53 8 -218 -5 -279 -8 -33 -48 -132 -89 -220 -40 -88 -86
-195 -102 -237 -23 -64 -37 -86 -81 -128 -29 -27 -62 -50 -73 -50 -26 0 -26 7
0 45 33 49 99 184 135 275 56 146 114 409 114 519 0 37 5 48 37 77 43 39 55
39 64 -2z m-161 -217 c-17 -118 -64 -294 -106 -395 -44 -109 -106 -221 -112
-204 -13 39 52 317 105 452 41 104 116 255 121 241 2 -7 -1 -49 -8 -94z m469
21 c14 -25 13 -28 -24 -73 -22 -25 -55 -68 -73 -93 -49 -69 -52 -70 -37 -11 8
30 18 83 21 119 8 80 17 92 63 88 26 -2 39 -10 50 -30z m-169 -124 c-27 -158
-129 -398 -218 -514 -59 -77 -109 -126 -119 -116 -14 14 17 119 55 184 45 80
100 206 136 319 28 84 58 133 117 192 41 42 46 31 29 -65z m180 -57 c-16 -83
-68 -190 -139 -284 -50 -67 -128 -143 -145 -143 -9 0 21 74 69 170 76 152 214
357 223 331 2 -7 -1 -40 -8 -74z"/>
<path d="M1570 1735 c-58 -18 -128 -77 -151 -129 -22 -49 -24 -131 -5 -177 30
-70 94 -111 254 -158 190 -56 240 -97 229 -188 -6 -52 -27 -79 -82 -104 -82
-38 -205 -15 -269 48 -21 21 -40 50 -43 65 -3 16 -8 28 -12 28 -3 -1 -31 -7
-61 -14 -50 -11 -55 -15 -51 -37 5 -38 28 -76 73 -119 109 -104 341 -121 475
-34 126 82 129 287 5 369 -20 13 -107 47 -193 75 -162 52 -203 76 -215 127
-11 41 5 90 37 117 100 85 297 42 325 -70 3 -13 8 -24 11 -24 14 0 99 24 106
30 24 21 -57 135 -118 167 -80 42 -226 55 -315 28z"/>
<path d="M2348 1471 c-75 -29 -124 -75 -159 -147 -28 -57 -32 -74 -32 -149 0
-75 4 -92 32 -149 32 -65 71 -104 141 -142 28 -15 56 -19 135 -19 92 0 104 2
154 30 104 58 154 149 154 280 0 144 -67 249 -186 294 -73 27 -173 28 -239 2z
m226 -112 c59 -40 81 -91 81 -184 0 -65 -4 -87 -23 -120 -74 -129 -255 -133
-329 -8 -24 42 -28 58 -28 128 0 65 4 87 23 120 56 98 184 128 276 64z"/>
<path d="M3210 1480 c-67 -14 -108 -40 -143 -90 -17 -24 -17 -24 -17 33 l0 57
-55 0 -55 0 0 -305 0 -305 59 0 60 0 3 203 c3 175 5 207 21 230 24 37 72 65
124 73 l43 6 0 54 c0 30 -1 53 -2 53 -2 -1 -19 -5 -38 -9z"/>
<path d="M3512 1469 c-30 -12 -72 -40 -101 -68 -61 -59 -85 -125 -84 -234 1
-128 57 -221 173 -283 28 -15 56 -19 135 -19 92 0 104 2 153 29 102 57 155
153 155 283 0 73 -4 90 -32 147 -18 37 -48 79 -69 96 -84 69 -223 90 -330 49z
m232 -110 c59 -40 81 -91 81 -184 0 -65 -4 -87 -23 -120 -77 -135 -263 -132
-335 5 -26 49 -28 62 -25 126 3 48 12 83 27 110 54 97 183 126 275 63z"/>
<path d="M3914 1479 c-10 -17 13 -36 27 -22 12 12 4 33 -11 33 -5 0 -12 -5
-16 -11z"/>
<path d="M4254 1470 c-72 -28 -136 -88 -165 -152 -33 -75 -33 -211 -1 -283 29
-63 73 -109 137 -143 44 -24 61 -27 145 -27 111 0 163 19 225 81 53 55 78 115
83 205 8 143 -41 241 -152 300 -80 43 -192 51 -272 19z m180 -85 c34 -7 84
-51 105 -94 59 -115 20 -265 -82 -317 -41 -22 -127 -21 -173 2 -21 11 -52 38
-68 61 -24 34 -30 55 -34 116 -4 65 -1 82 20 129 28 61 66 93 124 107 37 8 52
8 108 -4z"/>
<path d="M5099 1476 c-51 -14 -95 -44 -121 -84 l-18 -27 0 58 0 57 -55 0 -55
0 0 -305 0 -305 54 0 54 0 4 193 c3 161 7 198 22 230 20 41 66 71 129 82 l37
7 0 54 c0 30 -1 54 -2 53 -2 0 -24 -6 -49 -13z"/>
</g>
</svg>
